<svg viewBox="0 0 83 14" fill="none" xmlns="http://www.w3.org/2000/svg">
<g clip-path="url(#clip0)">
<g clip-path="url(#clip1)">
<path d="M8.06775 7.67237C8.06775 8.63777 7.84251 9.3796 7.39203 9.89787C6.94154 10.4161 6.30677 10.6803 5.46723 10.6803C4.6277 10.6803 3.99292 10.4161 3.54244 9.89787C3.09196 9.3796 2.86671 8.63777 2.86671 7.67237V0H0V7.89594C0 8.95279 0.215004 9.8877 0.634772 10.721C1.05454 11.5543 1.67908 12.2047 2.50837 12.6721C3.33767 13.1396 4.32055 13.3733 5.47747 13.3733C6.62416 13.3733 7.61727 13.1396 8.44657 12.6721C9.27587 12.2047 9.9004 11.5543 10.3202 10.721C10.7399 9.8877 10.9549 8.94263 10.9549 7.89594V0H8.06775V7.67237Z" fill="white"/>
<path d="M19.1459 6.00579C19.6885 5.78222 20.1185 5.43671 20.4257 4.9591C20.7328 4.49164 20.8864 3.89208 20.8864 3.18073C20.8864 2.20517 20.4973 1.43285 19.7295 0.853615C18.9616 0.284538 17.9275 0 16.6375 0H12.2248V13.1599H16.8116C17.7637 13.1599 18.5828 12.9973 19.2892 12.662C19.9957 12.3266 20.5383 11.8693 20.9273 11.2697C21.3164 10.6702 21.5007 9.99949 21.5007 9.24749C21.5109 7.68253 20.7226 6.59519 19.1459 6.00579ZM15.112 2.53036H16.6273C17.0778 2.53036 17.4463 2.6523 17.7125 2.89619C17.989 3.14008 18.1221 3.48559 18.1221 3.92256C18.1221 4.35953 17.989 4.70504 17.7125 4.94893C17.4361 5.19282 17.0778 5.31477 16.6273 5.31477H15.112V2.53036ZM18.1323 10.2332C17.7944 10.5178 17.3235 10.66 16.6989 10.66H15.112V7.34719H16.6989C17.3132 7.34719 17.7944 7.48945 18.1323 7.77399C18.4702 8.05853 18.634 8.46501 18.634 9.0036C18.634 9.54219 18.4599 9.94868 18.1323 10.2332Z" fill="white"/>
<path d="M25.3967 0H22.5198V13.1599H25.3967V0Z" fill="white"/>
<path d="M32.3081 5.52817C31.2945 5.1725 30.5983 4.85747 30.199 4.5831C29.7997 4.29856 29.6052 3.97337 29.6052 3.59738C29.6052 3.26203 29.7486 2.98765 30.0352 2.77425C30.3219 2.56084 30.6802 2.45922 31.1205 2.45922C32.1034 2.45922 32.8303 2.96733 33.2808 3.98354L35.5741 2.40841C35.2055 1.61577 34.6527 1.01621 33.895 0.609725C33.1477 0.203242 32.2569 0 31.2331 0C30.4038 0 29.6564 0.162593 29.0012 0.477618C28.3459 0.792642 27.834 1.23977 27.4654 1.79869C27.0968 2.36776 26.9126 2.99781 26.9126 3.699C26.9126 4.71521 27.2197 5.51801 27.834 6.11757C28.4483 6.71714 29.3288 7.21508 30.4755 7.63172C31.3969 7.95691 32.0317 8.26177 32.3695 8.55647C32.7074 8.84101 32.8815 9.18652 32.8815 9.59301C32.8815 10.0097 32.7279 10.3348 32.431 10.5787C32.1238 10.8226 31.7348 10.9446 31.2536 10.9446C30.7007 10.9446 30.1786 10.7718 29.6974 10.4161C29.2162 10.0605 28.8783 9.60317 28.6735 9.02393L26.3802 10.721C26.7487 11.6457 27.3426 12.3673 28.1821 12.8652C29.0114 13.3631 30.0147 13.6172 31.1717 13.6172C32.0214 13.6172 32.7893 13.4546 33.4855 13.1192C34.1817 12.7839 34.7346 12.3063 35.1441 11.6661C35.5536 11.0259 35.7584 10.2637 35.7584 9.38976C35.7584 8.4142 35.482 7.63172 34.9291 7.05248C34.3762 6.44276 33.4958 5.94482 32.3081 5.52817Z" fill="white"/>
<path d="M46.8817 0.894263C45.8579 0.2947 44.6908 0 43.411 0C42.3769 0 41.4145 0.172755 40.534 0.518266C39.6535 0.863777 38.9471 1.30075 38.4147 1.83934L38.8652 2.28647C38.1792 2.85554 37.6468 3.54657 37.2578 4.37986C36.8687 5.21315 36.6742 6.16838 36.6742 7.24556C36.6742 8.39388 36.9609 9.4609 37.524 10.4365C38.0973 11.412 38.8857 12.1742 39.9095 12.7534C40.9333 13.3225 42.1005 13.607 43.411 13.607C44.701 13.607 45.8579 13.3123 46.892 12.7128C47.926 12.1132 48.7246 11.3002 49.298 10.2637C49.8713 9.22717 50.158 8.06869 50.158 6.79843C50.158 5.52817 49.8713 4.37986 49.298 3.34332C48.7144 2.30679 47.9158 1.49383 46.8817 0.894263ZM46.7589 8.92231C46.4415 9.54219 45.991 10.03 45.4177 10.3755C44.8341 10.7312 44.1686 10.9039 43.411 10.9039C42.6431 10.9039 41.9674 10.7312 41.3838 10.3958C40.8002 10.0605 40.36 9.60317 40.0528 9.03409C39.7457 8.46501 39.5921 7.83496 39.5921 7.16427C39.5921 6.50373 39.715 5.94482 39.9504 5.49769C40.1859 5.05055 40.5135 4.6644 40.9128 4.31888L40.4624 3.87175C40.79 3.51608 41.1995 3.2417 41.7012 3.0283C42.2029 2.8149 42.7762 2.71328 43.411 2.71328C44.1686 2.71328 44.8341 2.88603 45.4177 3.2417C46.0012 3.59738 46.4517 4.07499 46.7589 4.69488C47.0763 5.31477 47.2298 6.01595 47.2298 6.80859C47.2298 7.60124 47.0763 8.30242 46.7589 8.92231Z" fill="white"/>
<path d="M51.4734 13.1599H54.3504V7.91626H59.9814V5.74158H54.3504V2.71328H60.5445V0H51.4734V13.1599Z" fill="white"/>
<path d="M61.7674 2.71328H65.4942V13.1599H68.3711V2.71328H72.0876V0H61.7674V2.71328Z" fill="white"/>
<path d="M78.8975 3.28235V0H76.6656V3.28235H75.8158H73.3484V5.49769H75.1913H75.8158H76.6656V8.7902H78.8975V5.49769H81.6516L82.5833 3.28235H78.8975Z" fill="#428EE0"/>
</g>
</g>
<defs>
<clipPath id="clip0">
<rect width="83" height="13.9496" fill="white"/>
</clipPath>
<clipPath id="clip1">
<rect width="83" height="13.6172" fill="white"/>
</clipPath>
</defs>
</svg>
